<?xml version="1.0" encoding="utf-8"?>
<!-- Generator: Adobe Illustrator 16.0.0, SVG Export Plug-In . SVG Version: 6.00 Build 0)  -->
<!DOCTYPE svg PUBLIC "-//W3C//DTD SVG 1.1//EN" "http://www.w3.org/Graphics/SVG/1.1/DTD/svg11.dtd">
<svg version="1.1" id="Calque_1" xmlns="http://www.w3.org/2000/svg" xmlns:xlink="http://www.w3.org/1999/xlink" x="0px" y="0px"
	 width="91px" height="91px" viewBox="0 0 91 91" enable-background="new 0 0 91 91" xml:space="preserve">
<path fill="#FFFFFF" stroke="#FFFFFF" stroke-miterlimit="10" d="M58.179,40.353c5.694,0,10.281-4.668,10.281-10.364
	c0-5.664-4.3-10.307-9.994-10.307c-5.679,0-9.979,4.562-9.979,10.226v5.846h-9.199v-5.846c0-5.663-4.297-10.267-9.96-10.267
	c-5.694,0-10.144,4.685-10.144,10.348c0,5.694,4.786,10.364,10.449,10.364h5.056v9.197h-5.056c-5.692,0-10.296,3.928-10.296,9.592
	c0,5.709,4.296,9.95,9.99,9.95c5.663,0,9.96-4.901,9.96-10.611v-3.412h9.199v3.412c0,5.71,4.3,10.282,9.979,10.282
	c5.693,0,10.137-3.912,10.137-9.621c0-5.664-4.731-9.592-10.425-9.592h-6.012v-9.197H58.179z M52.166,29.893
	c0-2.645,2.754-4.797,5.398-4.797c2.688,0,5.141,2.661,5.141,5.307c0,2.689-1.852,5.351-4.541,5.351h-5.998V29.893z M34.69,58.48
	c0,2.69-2.274,4.842-4.919,4.842c-2.691,0-4.903-1.459-4.903-4.148c0-2.645,2.09-4.105,4.781-4.105h5.041V58.48z M34.69,35.754
	h-5.04c-2.691,0-4.842-2.663-4.842-5.351c0-2.646,2.272-5.053,4.963-5.053c2.645,0,4.919,1.897,4.919,4.542V35.754z M48.487,49.55
	h-9.199v-9.197h9.199V49.55z M58.164,55.068c2.689,0,4.842,1.461,4.842,4.105c0,2.689-2.753,4.494-5.441,4.494
	c-2.645,0-5.398-2.497-5.398-5.188v-3.412H58.164z"/>
<circle fill="none" stroke="#FFFFFF" stroke-width="5" stroke-miterlimit="10" cx="43.894" cy="44.366" r="40.898"/>
</svg>
